<?xml version="1.0" encoding="UTF-8"?>
<svg width="766.67" height="768" inkscape:version="1.0.2 (394de47547, 2021-03-26)" sodipodi:docname="pdx_code_guild_logo.svg" version="1.1" viewBox="0 0 766.67 768" xml:space="preserve" xmlns="http://www.w3.org/2000/svg" xmlns:cc="http://creativecommons.org/ns#" xmlns:dc="http://purl.org/dc/elements/1.1/" xmlns:inkscape="http://www.inkscape.org/namespaces/inkscape" xmlns:rdf="http://www.w3.org/1999/02/22-rdf-syntax-ns#" xmlns:sodipodi="http://sodipodi.sourceforge.net/DTD/sodipodi-0.dtd"><sodipodi:namedview bordercolor="#666666" borderopacity="1" gridtolerance="10" guidetolerance="10" inkscape:current-layer="g40" inkscape:cx="383.33334" inkscape:cy="384" inkscape:pageopacity="0" inkscape:pageshadow="2" inkscape:window-height="1317" inkscape:window-maximized="1" inkscape:window-width="2560" inkscape:window-x="0" inkscape:window-y="0" inkscape:zoom="1.3125" objecttolerance="10" pagecolor="#ffffff" showgrid="false"/><metadata><rdf:RDF><cc:Work rdf:about=""><dc:format>image/svg+xml</dc:format><dc:type rdf:resource="http://purl.org/dc/dcmitype/StillImage"/><dc:title/></cc:Work></rdf:RDF></metadata><g transform="matrix(1.3333 0 0 -1.3333 0 768)"><g transform="scale(.1)"><path d="m5744.3 2879.3c0-1585.9-1285.6-2871.4-2871.4-2871.4s-2871.4 1285.6-2871.4 2871.4c0 1585.8 1285.5 2871.4 2871.4 2871.4s2871.4-1285.6 2871.4-2871.4z" fill="#f47025"/><g fill="#f9f9f9"><path d="m512.66 1424.6 378.47 264.06 110.86-158.86c11.88-17.04 19.26-35.16 22.07-54.34 2.82-19.18 2.07-38.2-2.22-57.03-4.3-18.83-11.76-36.17-22.352-52.03-10.617-15.86-23.547-29.1-38.828-39.77-20.969-14.65-44.41-23.87-70.269-27.65-25.313-3.91-49.879-1.22-73.75 8-23.629 8.87-43.36 24.69-59.262 47.43l-71.399 102.34-131.68-91.84zm226.09 68.98 68.828-98.63c7.934-11.37 17.891-19.22 29.883-23.51 12.34-4.07 25.469-4.69 39.34-1.88 14.14 2.46 27.969 8.4 41.437 17.81 13.871 9.69 24.141 21.1 30.864 34.22 6.679 13.13 9.648 26.29 8.91 39.49-0.16 13.09-3.992 24.97-11.41 35.63l-66.563 95.43z"/><path d="m768.71 1072.4 334.65 317.82 112.77-118.79c34.34-36.14 55.43-73.48 63.32-112 8.21-38.2 5.28-75.39-8.86-111.48-13.48-36.13-35.63-68.828-66.45-98.051-33.91-32.219-69.88-53.508-107.85-63.899-37.66-10.671-75.04-10.32-112.15 1.09-37.11 11.371-71.332 33.551-102.66 66.559zm384.41-68.79c23.56 22.39 40.12 46.49 49.69 72.31 10.16 25.78 12.54 51.6 7.07 77.5-4.84 25.9-18.32 50.43-40.39 73.71l-62.65 65.98-241.33-229.18 62.648-65.98c22.391-23.551 46.531-38.282 72.43-44.18 26.17-6.168 52.42-4.879 78.71 3.949 26.29 8.821 50.9 24.141 73.82 45.891z"/><path d="m1407.3 1085-8.71-221.44 211.29 66.91 64.1-48.871-274.25-85.11-9.81-278.68-64.1 48.91 8.91 213.12-203.21-64.922-64.61 49.301 266.18 83.09 9.61 286.99z"/><path d="m1692.5 609.92c11.17 25.859 26.68 49.137 46.52 69.848 19.96 21.089 43.09 38 69.38 50.699 26.83 12.929 55.58 19.883 86.21 20.781 30.78 1.332 62.27-5 94.49-18.91 38.17-16.52 67.38-39.57 87.66-69.098 20.43-29.14 31.56-60.191 33.4-93.082l-67.74-12.461c-0.54 20.539-4.84 38.43-12.85 53.711-7.66 15.11-17.77 27.77-30.35 37.93-12.19 10-25.08 17.93-38.6 23.781-22.26 9.609-43.71 13.481-64.37 11.57-20.51-1.531-39.69-7.152-57.58-16.882-17.54-9.879-33.2-22.688-47.11-38.399-13.47-15.89-24.18-33-32.07-51.289-8.79-20.269-13.94-41.441-15.43-63.43-1.33-21.64 0.78-42.39 6.37-62.269 6.13-19.652 15.74-37.262 28.83-52.813 13.08-15.589 29.57-27.699 49.45-36.289 13.52-5.859 28.67-9.57 45.47-11.168 16.76-1.601 33.48-0.082 50.12 4.528 17.18 4.84 32.97 14.058 47.38 27.66l41.8-55.629c-17.89-17.301-39.34-29.262-64.42-35.902-24.65-6.789-50.15-8.977-76.48-6.559-25.94 2.27-50.04 8.199-72.31 17.852-29.84 12.886-54.41 30.859-73.75 53.867-19.14 23.402-33.2 49.301-42.14 77.73-8.76 28.789-12.54 58.281-11.29 88.442 1.4 30.55 7.89 59.14 19.41 85.781z"/><path d="m2247.9 161.99c-32.58 7.274-60.55 20.203-83.91 38.75-23.4 18.563-42.18 40.742-56.36 66.563-14.11 26.25-23.44 54.109-27.93 83.519-4.03 29.77-2.82 59.02 3.63 87.77 6.72 30.039 18.59 57.351 35.66 81.961 17.15 25.039 37.82 45.929 62 62.73 24.25 17.188 50.89 29.02 79.84 35.391 29.49 6.719 59.69 6.637 90.55-0.27 32.14-7.191 59.84-20.281 83.12-39.261 23.71-19.059 42.42-41.68 56.09-67.809 14.11-26.25 23.21-54.062 27.31-83.402 4.53-29.41 3.59-58.321-2.73-86.641-6.72-30.039-18.68-57.539-35.82-82.578-16.61-24.691-37.08-45.66-61.33-62.852-24.22-16.8-50.98-28.359-80.35-34.648-28.99-6.41-58.91-6.129-89.77 0.777zm-92.27 260.43c-4.72-21.133-5.93-42.422-3.59-63.793 2.31-21.399 7.85-41.289 16.6-59.68 9.3-18.047 21.8-33.519 37.58-46.367 15.78-12.852 34.65-21.762 56.64-26.68 22.85-5.082 44.18-5 64.02 0.348 19.85 5.309 37.43 14.488 52.78 27.461 15.86 13.359 29.14 29.019 39.84 47.07 10.78 18.438 18.4 37.621 22.85 57.457 4.73 21.172 5.9 42.231 3.48 63.172-1.88 21.32-7.46 40.969-16.76 59.059-9.18 18.48-21.68 34.14-37.42 46.992-15.35 12.769-33.83 21.559-55.39 26.41-22.85 5.078-44.18 5-64.02-0.351-19.85-5.321-37.66-14.461-53.4-27.348-15.78-12.891-29.22-28.32-40.35-46.25-10.67-18.043-18.29-37.192-22.86-57.5z"/><path d="m2571 107.7 18.86 461.13 163.67-6.723c49.77-2.027 90.94-14.097 123.4-36.25 32.54-21.718 56.29-50.468 71.29-86.207 15.47-35.312 22.35-74.222 20.63-116.64-1.92-46.762-12.89-87.071-32.93-120.94-19.61-33.91-46.68-59.691-81.25-77.34-34.53-17.66-74.53-25.589-120-23.71zm323.78 218.35c1.33 32.469-3.55 61.289-14.68 86.488-10.63 25.582-26.96 45.742-48.91 60.551-21.48 15.191-48.24 23.43-80.31 24.719l-90.9 3.75-13.63-332.54 90.93-3.711c32.47-1.329 60.04 4.921 82.74 18.711 23.12 13.832 41.05 33.05 53.75 57.66 12.73 24.652 19.73 52.769 21.01 84.371z"/><path d="m3373.7 200.16 7.35-63.949-314.5-36.051-52.57 458.51 308.67 35.387 7.34-63.938-236.37-27.07 14.96-130.47 204.73 23.469 6.88-60.031-204.73-23.481 16.09-140.16z"/><path d="m3848 266.21c-28.4-10.621-57.19-14.691-86.33-12.191-29.18 2.539-56.95 10.632-83.4 24.339-25.97 13.871-49.22 32.032-69.61 54.45-20.04 22.582-35.58 48.711-46.68 78.32-11.09 29.652-16.4 59.34-15.97 89.101 0.82 29.93 6.6 58.442 17.26 85.59 11.06 27.27 26.88 51.211 47.35 71.84 20.93 20.781 46.21 36.719 75.82 47.809 41.01 15.312 78.75 19.492 113.28 12.543 34.8-6.41 64.61-21.172 89.45-44.262l-38.24-57.34c-20.16 19.289-43.01 30.86-68.52 34.719-25.11 4.031-50.04 1.41-74.8-7.848-20.28-7.582-37.15-18.75-50.59-33.511-13.47-14.731-23.47-31.918-30.04-51.489-6.29-18.98-8.9-39.179-7.85-60.551 0.86-20.929 5.2-41.75 12.93-62.46 8.2-21.911 19.34-41.129 33.36-57.61 14.06-16.488 30.08-29.691 48.13-39.609 17.89-9.5 36.91-15.121 56.99-16.84 20.08-1.762 40.04 1.09 59.96 8.559 23.51 8.781 43.63 23.039 60.35 42.691 16.95 20.238 30.27 45.82 40 76.758l25.94-69.418c-21.8-56.75-58.05-94.602-108.79-113.59zm62.03 218.24-90.7-33.937-18.91 50.508 147.93 55.351 81.76-218.56-57.23-21.399z"/><path d="m4297.5 487.73c-31.33-19.371-61.17-30.429-89.53-33.199-28.01-2.543-54.3 1.328-78.99 11.52-24.29 10.469-46.87 25.551-67.69 45.281-20.51 19.918-38.59 42.617-54.34 68.047l-123.04 199.02 61.91 38.282 123.05-199.02c11.17-18.051 23.86-34.422 38.01-49.109 13.94-14.289 29.06-25.582 45.39-33.821 16.32-8.25 33.67-12.031 52.11-11.328 18.78 0.899 38.32 7.618 58.59 20.149 20.62 12.781 35.39 27.23 44.22 43.398 8.98 16.801 13.28 34.18 12.81 52.231-0.35 18.672-3.79 37.422-10.35 56.289-6.56 18.871-15.31 37.152-26.25 54.84l-123.09 199.03 62.5 38.629 123.05-199.02c16.64-26.918 29.06-54.418 37.23-82.469 8.32-27.46 11.25-54.449 8.79-80.929-2.35-25.899-11.02-50.59-26.02-74.141-15-23.558-37.77-44.769-68.36-63.68z"/><path d="m4562.3 678.55-293.08 356.49 56.25 46.25 293.04-356.49z"/><path d="m4721 811.52-329.5 323.17 50.98 51.95 283.56-278.09 173.39 176.8 45.94-45.04z"/><path d="m5002.9 1109.1-373.98 270.43 95.97 132.73c29.18 40.4 61.99 68.01 98.4 82.86 36.06 15.11 73.13 19.02 111.21 11.83 38.01-6.64 74.22-22.38 108.63-47.26 37.93-27.43 65.47-58.83 82.66-94.26 17.42-35.04 23.95-71.88 19.61-110.43-4.38-38.56-19.88-76.29-46.52-113.16zm-3.2 390.55c-26.33 19.02-53.05 30.86-80.2 35.51-27.23 5.23-53.05 2.81-77.46-7.35-24.57-9.53-46.21-27.26-65-53.24l-53.32-73.75 269.69-195 53.32 73.75c19.02 26.33 29.06 52.77 30.08 79.3 1.25 26.91-4.89 52.46-18.36 76.64-13.52 24.22-33.09 45.58-58.75 64.14z"/></g><g transform="scale(10)"><text transform="matrix(1 0 0 -1 20.817 255.03)" fill="#f9f9f9" font-family="f-0" font-size="129.76px"><tspan x="0 66.43866 148.05959 227.08525 258.48788 297.54657 380.2056 466.36823" y="0" font-family="Raleway" font-weight="600">&lt;guild/&gt;</tspan></text></g></g></g></svg>
